<svg width="30" height="30" viewBox="0 0 30 30" fill="none" xmlns="http://www.w3.org/2000/svg">
<path d="M16.3333 15.3333C17.7478 15.3333 19.1043 15.8952 20.1045 16.8954C21.1047 17.8956 21.6666 19.2522 21.6666 20.6667V22.6667C21.6666 23.1971 21.4559 23.7058 21.0808 24.0809C20.7058 24.456 20.1971 24.6667 19.6666 24.6667H3.66663C3.13619 24.6667 2.62749 24.456 2.25241 24.0809C1.87734 23.7058 1.66663 23.1971 1.66663 22.6667V20.6667C1.66663 19.2522 2.22853 17.8956 3.22872 16.8954C4.22892 15.8952 5.58547 15.3333 6.99996 15.3333H16.3333ZM24.3333 15.3333C25.3942 15.3333 26.4116 15.7548 27.1617 16.5049C27.9119 17.2551 28.3333 18.2725 28.3333 19.3333V21.3333C28.3333 21.8638 28.1226 22.3725 27.7475 22.7475C27.3724 23.1226 26.8637 23.3333 26.3333 23.3333H24.3333V20.6667C24.3333 19.6317 24.0923 18.6109 23.6295 17.6852C23.1666 16.7595 22.4946 15.9543 21.6666 15.3333H24.3333ZM11.6666 2C13.2579 2 14.784 2.63214 15.9093 3.75736C17.0345 4.88258 17.6666 6.4087 17.6666 8C17.6666 9.5913 17.0345 11.1174 15.9093 12.2426C14.784 13.3679 13.2579 14 11.6666 14C10.0753 14 8.5492 13.3679 7.42398 12.2426C6.29877 11.1174 5.66663 9.5913 5.66663 8C5.66663 6.4087 6.29877 4.88258 7.42398 3.75736C8.5492 2.63214 10.0753 2 11.6666 2ZM23 6C24.0608 6 25.0782 6.42143 25.8284 7.17157C26.5785 7.92172 27 8.93913 27 10C27 11.0609 26.5785 12.0783 25.8284 12.8284C25.0782 13.5786 24.0608 14 23 14C21.9391 14 20.9217 13.5786 20.1715 12.8284C19.4214 12.0783 19 11.0609 19 10C19 8.93913 19.4214 7.92172 20.1715 7.17157C20.9217 6.42143 21.9391 6 23 6Z" fill="#BE97C3"/>
</svg>
