<svg width="30" height="30" viewBox="0 0 30 30" fill="none" xmlns="http://www.w3.org/2000/svg">
<g clip-path="url(#clip0_4278_56472)">
<path d="M14.5 2.5C21.1276 2.5 26.5 7.8724 26.5 14.5C26.5 21.1276 21.1276 26.5 14.5 26.5C7.8724 26.5 2.5 21.1276 2.5 14.5C2.5 7.8724 7.8724 2.5 14.5 2.5ZM14.5 7.3C14.1817 7.3 13.8765 7.42643 13.6515 7.65147C13.4264 7.87652 13.3 8.18174 13.3 8.5V14.5C13.3001 14.8182 13.4265 15.1234 13.6516 15.3484L17.2516 18.9484C17.4779 19.167 17.781 19.2879 18.0957 19.2852C18.4103 19.2825 18.7113 19.1563 18.9338 18.9338C19.1563 18.7113 19.2825 18.4103 19.2852 18.0957C19.2879 17.781 19.167 17.4779 18.9484 17.2516L15.7 14.0032V8.5C15.7 8.18174 15.5736 7.87652 15.3485 7.65147C15.1235 7.42643 14.8183 7.3 14.5 7.3Z" fill="#E47E33"/>
</g>
<defs>
<clipPath id="clip0_4278_56472">
<rect width="30" height="30" fill="white"/>
</clipPath>
</defs>
</svg>
