<svg width="30" height="30" viewBox="0 0 30 30" fill="none" xmlns="http://www.w3.org/2000/svg">
<path d="M9 13.5C11.4853 13.5 13.5 11.4853 13.5 9C13.5 6.51472 11.4853 4.5 9 4.5C6.51472 4.5 4.5 6.51472 4.5 9C4.5 11.4853 6.51472 13.5 9 13.5Z" fill="#E47E33"/>
<path d="M21 13.5C23.4853 13.5 25.5 11.4853 25.5 9C25.5 6.51472 23.4853 4.5 21 4.5C18.5147 4.5 16.5 6.51472 16.5 9C16.5 11.4853 18.5147 13.5 21 13.5Z" fill="#E47E33"/>
<path d="M21 15C25.965 15 30 17.685 30 21V24H21V21C21 18.78 19.185 16.845 16.5 15.81C17.82 15.285 19.365 15 21 15ZM9 15C13.965 15 18 17.685 18 21V24H0V21C0 17.685 4.035 15 9 15Z" fill="#E47E33"/>
</svg>
