<svg width="28" height="28" viewBox="0 0 28 28" fill="none" xmlns="http://www.w3.org/2000/svg">
<path d="M14 2.33325C20.4435 2.33325 25.6667 7.55642 25.6667 13.9999C25.6667 20.4434 20.4435 25.6666 14 25.6666C7.55654 25.6666 2.33337 20.4434 2.33337 13.9999C2.33337 7.55642 7.55654 2.33325 14 2.33325ZM14 6.99992C13.6906 6.99992 13.3939 7.12284 13.1751 7.34163C12.9563 7.56042 12.8334 7.85717 12.8334 8.16659V13.9999C12.8334 14.3093 12.9564 14.606 13.1752 14.8248L16.6752 18.3248C16.8952 18.5373 17.1899 18.6549 17.4958 18.6522C17.8017 18.6495 18.0944 18.5269 18.3107 18.3105C18.527 18.0942 18.6497 17.8016 18.6523 17.4957C18.655 17.1898 18.5374 16.8951 18.3249 16.6751L15.1667 13.5169V8.16659C15.1667 7.85717 15.0438 7.56042 14.825 7.34163C14.6062 7.12284 14.3095 6.99992 14 6.99992Z" fill="#BE97C3"/>
</svg>
