<svg width="30" height="30" viewBox="0 0 30 30" fill="none" xmlns="http://www.w3.org/2000/svg">
<g clip-path="url(#clip0_2368_28227)">
<path d="M13.1625 13.4125C13.0375 13.025 12.925 12.65 12.8 12.2625C12.675 11.875 12.5625 11.5125 12.4625 11.15C12.3625 10.8 12.275 10.475 12.1875 10.175H12.1625C12.05 10.7125 11.9125 11.25 11.7375 11.7875C11.55 12.3875 11.3625 13.0125 11.1625 13.6375C10.9875 14.275 10.8 14.8625 10.6125 15.3875H13.7875C13.7125 15.1238 13.6125 14.8125 13.5 14.4862C13.3875 14.15 13.275 13.7875 13.1625 13.4125ZM24.6875 0.375H5.3125C2.375 0.375 0 2.75 0 5.6875V24.3125C0 27.25 2.375 29.625 5.3125 29.625H24.6875C27.625 29.625 30 27.25 30 24.3125V5.6875C30 2.75 27.625 0.375 24.6875 0.375ZM18.375 21.0375H15.7613C15.675 21.05 15.5875 20.9875 15.5625 20.9L14.5375 17.925H9.8875L8.9375 20.8625C8.9125 20.975 8.8125 21.05 8.7 21.0388H6.35C6.2125 21.0388 6.175 20.9625 6.2125 20.8137L10.2375 9.225C10.275 9.1 10.3125 8.9625 10.3625 8.8125C10.4125 8.55 10.4375 8.275 10.4375 8C10.425 7.9375 10.475 7.875 10.5375 7.8625H13.775C13.875 7.8625 13.925 7.9 13.9375 7.9625L18.5 20.8375C18.5375 20.9738 18.5 21.0375 18.375 21.0375ZM22.625 20.85C22.625 20.9875 22.5763 21.05 22.4638 21.05H20.0125C19.8875 21.05 19.825 20.9738 19.825 20.85V11.225C19.825 11.1 19.8763 11.05 19.9888 11.05H22.4638C22.5763 11.05 22.625 11.1125 22.625 11.225V20.85ZM22.3638 9.5625C22.2161 9.71243 22.0381 9.82903 21.8417 9.90449C21.6453 9.97995 21.435 10.0125 21.225 10C20.8125 10.0125 20.4125 9.85 20.1113 9.5625C19.8249 9.24936 19.6723 8.83662 19.6862 8.4125C19.6737 7.9875 19.8362 7.5875 20.135 7.3C20.4375 7.0125 20.8375 6.8625 21.25 6.8625C21.7388 6.8625 22.1112 7.0125 22.3875 7.3C22.6625 7.6 22.8125 8 22.8 8.4125C22.8125 8.8375 22.6625 9.25 22.3638 9.5625Z" fill="#90293C"/>
</g>
<defs>
<clipPath id="clip0_2368_28227">
<rect width="30" height="30" fill="white"/>
</clipPath>
</defs>
</svg>
