<svg width="30" height="30" viewBox="0 0 30 30" fill="none" xmlns="http://www.w3.org/2000/svg">
<path d="M11.3742 11.3109C11.3742 9.63281 10.2328 9.63281 10.2328 9.63281H5.54529V13.2305H9.94216C10.7015 13.2305 11.3742 12.9867 11.3742 11.3109ZM10.2328 15.7172H5.54529V20.025H10.0219C10.6945 20.0063 11.939 19.7906 11.939 17.9297C11.932 15.7031 10.2328 15.7172 10.2328 15.7172ZM22.2492 13.2305C19.7578 13.2305 19.4109 15.7148 19.4109 15.7148H24.7078C24.7078 15.7148 24.7406 13.2305 22.2492 13.2305Z" fill="#90293C"/>
<path d="M25.699 1H4.30331C3.42722 1 2.58701 1.34803 1.96752 1.96752C1.34803 2.58701 1 3.42722 1 4.30331V25.6967C1 26.5728 1.34803 27.413 1.96752 28.0325C2.58701 28.652 3.42722 29 4.30331 29H25.6967C26.5728 29 27.413 28.652 28.0325 28.0325C28.652 27.413 29 26.5728 29 25.6967V4.30331C29 3.42761 28.6523 2.58774 28.0333 1.96832C27.4143 1.34889 26.5747 1.0006 25.699 1ZM18.592 7.96434H25.0175V9.88429H18.592V7.96434ZM15.343 18.026C15.343 22.7805 10.396 22.6243 10.396 22.6243H2.29053V7.04738H10.396C12.8593 7.04738 14.8042 8.40584 14.8042 11.1952C14.8042 13.9846 12.4269 14.1589 12.4269 14.1589C15.5604 14.1589 15.343 18.026 15.343 18.026ZM27.3631 17.7724H19.3029C19.3029 20.6659 22.0447 20.4893 22.0447 20.4893C24.6326 20.4893 24.5352 18.8139 24.5352 18.8139H27.2725C27.2725 23.2605 21.9428 22.9549 21.9428 22.9549C15.5468 22.9549 15.9588 17.0003 15.9588 17.0003C15.9588 17.0003 15.9588 11.0163 21.9428 11.0163C28.2483 11.0118 27.3653 17.7724 27.3653 17.7724H27.3631Z" fill="#90293C"/>
</svg>
