<svg width="30" height="30" viewBox="0 0 30 30" fill="none" xmlns="http://www.w3.org/2000/svg">
<g clip-path="url(#clip0_2405_15876)">
<path d="M6.25709 3C4.53783 3 3.26713 4.50502 3.3247 6.13591C3.37826 7.70386 3.3073 9.7351 2.7958 11.3901C2.28297 13.0504 1.41665 14.1029 0 14.2381V15.7619C1.41665 15.8971 2.28297 16.9496 2.7958 18.6099C3.3073 20.2662 3.37826 22.2961 3.32337 23.8641C3.26713 25.495 4.53783 27 6.25842 27H23.8715C25.5907 27 26.8628 25.495 26.8065 23.8641C26.7516 22.2961 26.8226 20.2662 27.3327 18.6099C27.8469 16.9496 28.7119 15.8971 30.1272 15.7619V14.2381C28.7106 14.1029 27.8469 13.0504 27.3327 11.3901C26.8226 9.7351 26.7516 7.70386 26.8065 6.13591C26.8628 4.50502 25.5907 3 23.8715 3H6.25709ZM20.4249 17.773C20.4249 20.0199 18.7498 21.383 15.9688 21.383H11.2341C11.1669 21.3833 11.1004 21.3704 11.0383 21.3449C10.9761 21.3194 10.9197 21.2818 10.8721 21.2344C10.8246 21.187 10.7869 21.1306 10.7612 21.0685C10.7355 21.0065 10.7224 20.94 10.7226 20.8728V9.1272C10.7226 9.06016 10.7359 8.99378 10.7616 8.93187C10.7873 8.86996 10.825 8.81375 10.8726 8.76647C10.9201 8.71918 10.9765 8.68176 11.0386 8.65635C11.1006 8.63094 11.1671 8.61804 11.2341 8.61839H15.9406C18.2598 8.61839 19.7822 9.87302 19.7822 11.8025C19.7822 13.1549 18.7579 14.368 17.4537 14.5796V14.6505C19.2292 14.8447 20.4249 16.0752 20.4249 17.773ZM15.4519 10.2359H12.7525V14.0493H15.0261C16.7842 14.0493 17.7523 13.341 17.7523 12.0757C17.7523 10.8906 16.9194 10.2359 15.4519 10.2359ZM12.7525 15.561V19.7641H15.551C17.3814 19.7641 18.3495 19.029 18.3495 17.6485C18.3495 16.2694 17.3546 15.561 15.4332 15.561H12.7525Z" fill="#90293C"/>
</g>
<defs>
<clipPath id="clip0_2405_15876">
<rect width="30" height="30" fill="white"/>
</clipPath>
</defs>
</svg>
