<svg width="30" height="30" viewBox="0 0 30 30" fill="none" xmlns="http://www.w3.org/2000/svg">
<g clip-path="url(#clip0_2405_15843)">
<path fill-rule="evenodd" clip-rule="evenodd" d="M18.7499 2.5C19.7656 2.49994 20.7571 2.80917 21.5927 3.38655C22.4283 3.96392 23.0682 4.78206 23.4273 5.73209C23.7864 6.68211 23.8477 7.71898 23.603 8.70469C23.3583 9.6904 22.8192 10.5782 22.0574 11.25C22.9891 12.0698 23.5827 13.2067 23.7226 14.4398C23.8626 15.6729 23.5391 16.9139 22.8148 17.9217C22.0906 18.9294 21.0175 19.6319 19.8042 19.8924C18.5909 20.1529 17.324 19.9529 16.2499 19.3313V22.5C16.2499 23.3355 16.0405 24.1576 15.6409 24.8913C15.2412 25.6251 14.6641 26.2469 13.9622 26.7001C13.2604 27.1533 12.4561 27.4235 11.623 27.4858C10.7898 27.5481 9.95432 27.4007 9.19282 27.0569C8.43133 26.7132 7.7681 26.1841 7.26375 25.518C6.7594 24.852 6.43 24.0701 6.30564 23.2439C6.18129 22.4178 6.26594 21.5736 6.55187 20.7886C6.83779 20.0035 7.31588 19.3027 7.94245 18.75C7.41047 18.2808 6.98443 17.7037 6.69262 17.0571C6.4008 16.4106 6.24991 15.7094 6.24995 15C6.24991 14.2906 6.4008 13.5894 6.69262 12.9429C6.98443 12.2963 7.41047 11.7192 7.94245 11.25C7.18072 10.5782 6.64164 9.6904 6.39693 8.70469C6.15223 7.71898 6.21351 6.68211 6.57262 5.73209C6.93173 4.78206 7.57164 3.96392 8.40719 3.38655C9.24274 2.80917 10.2343 2.49994 11.2499 2.5H18.7499ZM13.7499 20H11.2499C10.7555 20 10.2721 20.1466 9.86102 20.4213C9.4499 20.696 9.12947 21.0865 8.94025 21.5433C8.75103 22.0001 8.70152 22.5028 8.79798 22.9877C8.89445 23.4727 9.13255 23.9181 9.48218 24.2678C9.83181 24.6174 10.2773 24.8555 10.7622 24.952C11.2472 25.0484 11.7498 24.9989 12.2067 24.8097C12.6635 24.6205 13.0539 24.3 13.3286 23.8889C13.6033 23.4778 13.7499 22.9945 13.7499 22.5V20ZM13.7499 12.5H11.2499C10.5869 12.5 9.95102 12.7634 9.48218 13.2322C9.01334 13.7011 8.74995 14.337 8.74995 15C8.74995 15.663 9.01334 16.2989 9.48218 16.7678C9.95102 17.2366 10.5869 17.5 11.2499 17.5H13.7499V12.5ZM18.7499 12.5C18.0869 12.5 17.451 12.7634 16.9822 13.2322C16.5133 13.7011 16.2499 14.337 16.2499 15C16.2499 15.663 16.5133 16.2989 16.9822 16.7678C17.451 17.2366 18.0869 17.5 18.7499 17.5C19.413 17.5 20.0489 17.2366 20.5177 16.7678C20.9866 16.2989 21.2499 15.663 21.2499 15C21.2499 14.337 20.9866 13.7011 20.5177 13.2322C20.0489 12.7634 19.413 12.5 18.7499 12.5ZM18.7499 5H16.2499V10H18.7499C19.3987 10.0029 20.0231 9.75352 20.4914 9.30453C20.9596 8.85554 21.235 8.2421 21.2594 7.59383C21.2837 6.94555 21.0551 6.31319 20.6218 5.83035C20.1886 5.34751 19.5846 5.052 18.9374 5.00625L18.7499 5ZM13.7499 5H11.2499C10.5869 5 9.95102 5.26339 9.48218 5.73223C9.01334 6.20107 8.74995 6.83696 8.74995 7.5C8.74995 8.16304 9.01334 8.79893 9.48218 9.26777C9.95102 9.73661 10.5869 10 11.2499 10H13.7499V5Z" fill="#90293C"/>
</g>
<defs>
<clipPath id="clip0_2405_15843">
<rect width="30" height="30" fill="white"/>
</clipPath>
</defs>
</svg>
