<svg width="30" height="30" viewBox="0 0 30 30" fill="none" xmlns="http://www.w3.org/2000/svg">
<g clip-path="url(#clip0_2405_15854)">
<mask id="mask0_2405_15854" style="mask-type:luminance" maskUnits="userSpaceOnUse" x="0" y="0" width="30" height="30">
<path d="M0 0H30V30H0V0Z" fill="white"/>
</mask>
<g mask="url(#mask0_2405_15854)">
<path d="M6.34998 0H7.70248V1.33625H8.93998V0H10.2925V4.045H8.93998V2.69125H7.70248V4.045H6.35123L6.34998 0ZM12.07 1.34125H10.88V0H14.6137V1.34125H13.4225V4.045H12.07V1.34125ZM15.2062 0H16.6162L17.4837 1.42125L18.35 0H19.76V4.045H18.4137V2.04L17.4837 3.47875H17.46L16.5287 2.04125V4.045H15.2062V0ZM20.4325 0H21.7862V2.70875H23.6862V4.04625H20.4325V0Z" fill="#90293C"/>
<path fill-rule="evenodd" clip-rule="evenodd" d="M6.3075 27.59L3.75 5.89625H26.25L23.6912 27.5875L14.9875 30L6.3075 27.59ZM11.4787 15.715L11.2363 12.99H21.4175L21.655 10.33H8.33L9.0475 18.3762H18.2687L17.96 21.8262L14.9925 22.6287H14.99L12.0275 21.8287L11.8375 19.7075H9.165L9.5375 23.885L14.9875 25.3975L20.4463 23.885L21.1112 16.43L21.1762 15.7162L11.4787 15.715Z" fill="#90293C"/>
</g>
</g>
<defs>
<clipPath id="clip0_2405_15854">
<rect width="30" height="30" fill="white"/>
</clipPath>
</defs>
</svg>
