<svg width="30" height="30" viewBox="0 0 30 30" fill="none" xmlns="http://www.w3.org/2000/svg">
<g clip-path="url(#clip0_2405_15848)">
<path d="M5.3125 0.375C2.375 0.375 0 2.75 0 5.6875V24.3125C0 27.25 2.375 29.625 5.3125 29.625H24.6875C27.625 29.625 30 27.25 30 24.3125V5.6875C30 2.75 27.625 0.375 24.6875 0.375H5.3125ZM19.45 6.7875H21.9875C22.05 6.775 22.1 6.825 22.1125 6.875V18.8C22.1125 19.025 22.125 19.275 22.1375 19.55C22.1625 19.8125 22.175 20.0625 22.1875 20.275C22.1875 20.3625 22.15 20.4375 22.0625 20.475C21.4125 20.75 20.725 20.95 20.025 21.075C19.4 21.1875 18.75 21.25 18.1 21.25C17.175 21.2625 16.25 21.075 15.4125 20.6875C14.625 20.325 13.975 19.725 13.525 18.9875C13.0625 18.225 12.8375 17.275 12.8375 16.1375C12.825 15.2125 13.0625 14.3 13.525 13.5C14 12.6875 14.6875 12.0125 15.5125 11.5625C16.3875 11.075 17.4375 10.8375 18.675 10.8375C18.7375 10.8375 18.825 10.8375 18.9375 10.85C19.05 10.8625 19.175 10.8625 19.325 10.875V6.925C19.325 6.8375 19.3625 6.7875 19.45 6.7875ZM8.2875 7.8625H10.725C10.8 7.85 10.875 7.9 10.8875 7.9875C10.9 8 10.9 8.0125 10.9 8.025V20.85C10.9 20.9875 10.8375 21.05 10.725 21.05H8.275C8.1625 21.05 8.1125 20.9875 8.1125 20.85V8.025C8.1125 7.9125 8.175 7.8625 8.2875 7.8625ZM18.575 13.1625C18.0875 13.1625 17.6 13.2625 17.1625 13.4875C16.7375 13.7 16.375 14.0125 16.1 14.4125C15.825 14.8125 15.6875 15.35 15.6875 16C15.675 16.4375 15.75 16.875 15.9 17.2875C16.025 17.625 16.2125 17.925 16.4625 18.175C16.7 18.4 16.9875 18.575 17.3125 18.675C17.65 18.7875 18 18.8375 18.35 18.8375C18.5375 18.8375 18.7125 18.825 18.875 18.8125C19.0375 18.825 19.1875 18.8 19.325 18.75V13.25C19.0792 13.1918 18.8276 13.1624 18.575 13.1625Z" fill="#90293C"/>
</g>
<defs>
<clipPath id="clip0_2405_15848">
<rect width="30" height="30" fill="white"/>
</clipPath>
</defs>
</svg>
