<svg width="30" height="30" viewBox="0 0 30 30" fill="none" xmlns="http://www.w3.org/2000/svg">
<path d="M25.8889 1C26.714 1 27.5053 1.32778 28.0888 1.91122C28.6722 2.49467 29 3.28599 29 4.11111V25.8889C29 26.714 28.6722 27.5053 28.0888 28.0888C27.5053 28.6722 26.714 29 25.8889 29H4.11111C3.28599 29 2.49467 28.6722 1.91122 28.0888C1.32778 27.5053 1 26.714 1 25.8889V4.11111C1 3.28599 1.32778 2.49467 1.91122 1.91122C2.49467 1.32778 3.28599 1 4.11111 1H25.8889ZM25.1111 25.1111V16.8667C25.1111 15.5217 24.5768 14.2319 23.6258 13.2808C22.6748 12.3298 21.3849 11.7956 20.04 11.7956C18.7178 11.7956 17.1778 12.6044 16.4311 13.8178V12.0911H12.0911V25.1111H16.4311V17.4422C16.4311 16.2444 17.3956 15.2644 18.5933 15.2644C19.1709 15.2644 19.7248 15.4939 20.1333 15.9023C20.5417 16.3107 20.7711 16.8646 20.7711 17.4422V25.1111H25.1111ZM7.03556 9.64889C7.72865 9.64889 8.39337 9.37356 8.88346 8.88346C9.37356 8.39337 9.64889 7.72865 9.64889 7.03556C9.64889 5.58889 8.48222 4.40667 7.03556 4.40667C6.33833 4.40667 5.66966 4.68364 5.17665 5.17665C4.68364 5.66966 4.40667 6.33833 4.40667 7.03556C4.40667 8.48222 5.58889 9.64889 7.03556 9.64889ZM9.19778 25.1111V12.0911H4.88889V25.1111H9.19778Z" fill="#90293C"/>
</svg>
