<svg width="30" height="30" viewBox="0 0 30 30" fill="none" xmlns="http://www.w3.org/2000/svg">
<g clip-path="url(#clip0_2405_15841)">
<path d="M12.3125 10.525C11.85 10.3375 11.35 10.2625 10.8375 10.275C10.5125 10.275 10.225 10.275 9.9875 10.2875C9.7375 10.275 9.5625 10.2875 9.475 10.3V14.5C9.65 14.5125 9.8125 14.525 9.9625 14.525H10.625C11.1125 14.525 11.6 14.45 12.0625 14.3C12.4625 14.1875 12.8125 13.95 13.0875 13.6375C13.35 13.325 13.475 12.9 13.475 12.35C13.4875 11.9625 13.3875 11.575 13.1875 11.2375C12.9791 10.9129 12.6726 10.6633 12.3125 10.525ZM24.6875 0.375H5.3125C2.375 0.375 0 2.75 0 5.6875V24.3113C0 27.2488 2.375 29.6238 5.3125 29.6238H24.6875C27.625 29.6238 30 27.2488 30 24.3113V5.6875C30 2.75 27.625 0.375 24.6875 0.375ZM15.4488 14.9375C14.95 15.6375 14.25 16.1625 13.4375 16.4625C12.5875 16.775 11.65 16.8875 10.625 16.8875C10.325 16.8875 10.125 16.8875 10 16.875C9.875 16.8625 9.7 16.8625 9.4625 16.8625V20.8738C9.475 20.9613 9.4125 21.0375 9.325 21.05H6.9C6.8 21.05 6.75 20.9988 6.75 20.8863V8.025C6.75 7.9375 6.7875 7.8875 6.875 7.8875C7.0875 7.8875 7.2875 7.8875 7.575 7.875C7.875 7.8625 8.1875 7.8625 8.525 7.85C8.8625 7.8375 9.225 7.8375 9.6125 7.825C10 7.8125 10.375 7.8125 10.75 7.8125C11.775 7.8125 12.625 7.9375 13.325 8.2C13.95 8.4125 14.525 8.7625 15 9.225C15.4 9.625 15.7125 10.1125 15.9125 10.65C16.0987 11.175 16.1987 11.7125 16.1987 12.275C16.2004 13.35 15.9504 14.2375 15.4488 14.9375ZM24.3125 19.8C23.9625 20.3 23.4737 20.6863 22.9125 20.9138C22.3 21.175 21.55 21.3113 20.6487 21.3113C20.075 21.3113 19.5112 21.2625 18.95 21.15C18.5125 21.0738 18.075 20.9375 17.675 20.75C17.5875 20.7013 17.5238 20.6138 17.5363 20.5138V18.3387C17.5363 18.3025 17.55 18.2513 17.5875 18.2263C17.6237 18.2013 17.6625 18.2137 17.7 18.2387C18.1875 18.5262 18.7 18.7275 19.25 18.8513C19.7237 18.9763 20.2237 19.0387 20.725 19.0387C21.2 19.0387 21.5375 18.975 21.7625 18.8625C21.9625 18.775 22.1 18.5625 22.1 18.3375C22.1 18.1612 22 18 21.8 17.8375C21.6 17.6763 21.1888 17.4887 20.5763 17.2487C19.9388 17.0237 19.3525 16.7237 18.8013 16.35C18.4094 16.0706 18.0845 15.7077 17.85 15.2875C17.6514 14.892 17.5531 14.4537 17.5637 14.0112C17.5637 13.4737 17.7138 12.9612 17.99 12.4987C18.3025 11.9987 18.7637 11.5988 19.3012 11.3488C19.8875 11.05 20.625 10.9125 21.5125 10.9125C22.025 10.9125 22.55 10.95 23.0625 11.025C23.4375 11.075 23.8 11.175 24.1375 11.3125C24.1862 11.325 24.2375 11.375 24.2625 11.425C24.275 11.475 24.2875 11.525 24.2875 11.575V13.6125C24.2875 13.6625 24.2625 13.7125 24.225 13.7375C24.1125 13.7625 24.05 13.7625 24 13.7375C23.625 13.5375 23.225 13.4 22.8 13.3125C22.3375 13.2125 21.875 13.15 21.4 13.15C21.15 13.1375 20.8875 13.175 20.6487 13.2375C20.4875 13.275 20.3487 13.3625 20.2612 13.4875C20.1987 13.5875 20.1612 13.7125 20.1612 13.825C20.1612 13.9375 20.2112 14.05 20.2875 14.15C20.4 14.2875 20.5487 14.4 20.7125 14.4875C20.9987 14.6375 21.3 14.775 21.5987 14.9C22.275 15.125 22.925 15.4375 23.525 15.8125C23.9375 16.0737 24.275 16.425 24.5112 16.85C24.7112 17.2475 24.8113 17.6875 24.7988 18.1362C24.8125 18.725 24.6375 19.3112 24.3125 19.8Z" fill="#90293C"/>
</g>
<defs>
<clipPath id="clip0_2405_15841">
<rect width="30" height="30" fill="white"/>
</clipPath>
</defs>
</svg>
